
						<svg width="24" height="24" viewBox="0 0 24 24" fill="none" xmlns="http://www.w3.org/2000/svg">
<path d="M12 4V5M5.07178 8L5.9378 8.5M18.9282 8L18.0622 8.5M5.93784 15.5L5.07182 16M8.53513 14C8.19479 13.4117 8 12.7286 8 12C8 9.79086 9.79086 8 12 8C13.6097 8 14.9973 8.95082 15.6318 10.3215M16.8 21C19.1196 21 21 19.2091 21 17C21 14.7909 19.1196 13 16.8 13C15.0665 13 13.5782 14.0002 12.9369 15.4278C12.6421 15.3356 12.3272 15.2857 12 15.2857C10.3431 15.2857 9 16.5649 9 18.1429C9 19.7208 10.3431 21 12 21H16.8Z" stroke="#363538" stroke-width="1.5" stroke-linecap="round" stroke-linejoin="round"></path>
</svg>
					